<?xml version="1.0" encoding="iso-8859-1"?>
<!-- Uploaded to: SVG Repo, www.svgrepo.com, Generator: SVG Repo Mixer Tools -->
<svg height="800px" width="800px" version="1.1" id="Layer_1" xmlns="http://www.w3.org/2000/svg" xmlns:xlink="http://www.w3.org/1999/xlink" 
	 viewBox="0 0 512 512" xml:space="preserve">
<circle style="fill:#2D4452;" cx="256" cy="256" r="256"/>
<path style="fill:#233540;" d="M414.96,168h-320v180l56.332,141.596C183.268,503.948,218.68,512,255.996,512
	c105,0,195.188-63.244,234.68-153.692L414.96,168z"/>
<polygon style="fill:#45998B;" points="413.7,348 93.7,348 93.7,168 413.7,168 413.7,228 "/>
<path style="fill:#B8E6DF;" d="M405.7,300v-84c-20,0-38.74-17.912-38.74-40h-220c0,22.088-18.54,40-40.632,40
	c-1.352,0-0.632-0.072-4.632-0.204v84.408c4-0.132,3.28-0.204,4.632-0.204c22.092,0,40.632,17.912,40.632,40h220
	C366.96,317.912,385.7,300,405.7,300z"/>
<g>
	<circle style="fill:#45998B;" cx="154.964" cy="258" r="20"/>
	<circle style="fill:#45998B;" cx="354.96" cy="258" r="20"/>
	<circle style="fill:#45998B;" cx="254.964" cy="258" r="60"/>
</g>
<path style="fill:#F5F5F5;" d="M251.636,283.004v-19.54c-6.092-1.748-10.564-4.376-13.408-7.908s-4.268-7.812-4.268-12.848
	c0-5.092,1.608-9.38,4.828-12.848c3.22-3.464,7.5-5.46,12.848-5.992v-4.612h6.76v4.612c4.944,0.588,8.88,2.276,11.8,5.064
	c2.92,2.78,4.788,6.508,5.592,11.168l-11.796,1.54c-0.72-3.668-2.584-6.152-5.596-7.46v18.236c7.46,2.024,12.544,4.64,15.248,7.86
	c2.708,3.22,4.064,7.344,4.064,12.384c0,5.624-1.704,10.368-5.108,14.22c-3.404,3.856-8.132,6.224-14.2,7.088v8.72h-6.76V294.2
	c-5.38-0.656-9.748-2.66-13.104-6.016c-3.356-3.36-5.5-8.092-6.436-14.224l12.168-1.304c0.5,2.484,1.428,4.628,2.8,6.432
	C248.432,280.892,249.956,282.196,251.636,283.004z M251.636,234.04c-1.836,0.624-3.296,1.68-4.384,3.172s-1.632,3.14-1.632,4.944
	c0,1.644,0.496,3.176,1.492,4.584c0.996,1.416,2.5,2.564,4.524,3.428V234.04L251.636,234.04z M258.396,283.656
	c2.332-0.436,4.232-1.516,5.692-3.248c1.456-1.728,2.188-3.752,2.188-6.084c0-2.084-0.608-3.876-1.836-5.384
	c-1.232-1.508-3.244-2.668-6.044-3.476L258.396,283.656L258.396,283.656z"/>
</svg>